<svg width="16" height="16" viewBox="0 0 16 16" fill="none" xmlns="http://www.w3.org/2000/svg">
<path fill-rule="evenodd" clip-rule="evenodd" d="M14.6666 7.99967C14.6666 11.6816 11.6818 14.6663 7.99992 14.6663C6.93346 14.6663 5.92549 14.4159 5.0316 13.9707C4.79406 13.8524 4.52254 13.813 4.26618 13.8816L2.78215 14.2787C2.13793 14.451 1.54855 13.8617 1.72093 13.2174L2.118 11.7334C2.18659 11.4771 2.14721 11.2055 2.02889 10.968C1.58366 10.0741 1.33325 9.06613 1.33325 7.99967C1.33325 4.31778 4.31802 1.33301 7.99992 1.33301C11.6818 1.33301 14.6666 4.31778 14.6666 7.99967ZM4.33325 7.99993C4.33325 8.40494 4.66158 8.73327 5.06659 8.73327C5.47159 8.73327 5.79992 8.40494 5.79992 7.99993C5.79992 7.59493 5.47159 7.2666 5.06659 7.2666C4.66158 7.2666 4.33325 7.59493 4.33325 7.99993ZM7.26659 7.99993C7.26659 8.40494 7.59491 8.73327 7.99992 8.73327C8.40493 8.73327 8.73325 8.40494 8.73325 7.99993C8.73325 7.59493 8.40493 7.2666 7.99992 7.2666C7.59491 7.2666 7.26659 7.59493 7.26659 7.99993ZM10.9333 8.73327C10.5282 8.73327 10.1999 8.40494 10.1999 7.99993C10.1999 7.59493 10.5282 7.2666 10.9333 7.2666C11.3383 7.2666 11.6666 7.59493 11.6666 7.99993C11.6666 8.40494 11.3383 8.73327 10.9333 8.73327Z" fill="#444955"/>
</svg>
